<?xml version="1.0" standalone="no"?>
<!DOCTYPE svg PUBLIC "-//W3C//DTD SVG 20010904//EN"
 "http://www.w3.org/TR/2001/REC-SVG-20010904/DTD/svg10.dtd">
<svg version="1.0" xmlns="http://www.w3.org/2000/svg"
 width="200.000000pt" height="200.000000pt" viewBox="0 0 200.000000 200.000000"
 preserveAspectRatio="xMidYMid meet">
<metadata>
Created by potrace 1.14, written by Peter Selinger 2001-2017
</metadata>
<g transform="translate(0.000000,200.000000) scale(0.100000,-0.100000)"
fill="#000000" stroke="none">
<path d="M194 1903 c-12 -2 -34 -18 -50 -34 l-29 -30 -3 -790 c-3 -873 -6
-829 61 -869 30 -19 52 -20 358 -20 l327 0 -5 44 c-7 58 10 105 56 155 21 22
35 41 32 42 -3 0 -163 2 -356 3 -192 2 -353 4 -356 4 -12 3 -7 1342 5 1350 16
10 968 10 989 0 16 -8 17 -39 17 -433 0 -234 2 -425 4 -425 15 0 106 65 107
76 0 8 1 185 1 394 0 209 -1 399 -1 421 -1 34 -8 48 -39 80 l-39 38 -529 -1
c-291 0 -539 -2 -550 -5z m581 -1587 c16 -16 20 -53 7 -73 -4 -6 -19 -16 -34
-22 -22 -8 -31 -6 -53 11 -22 17 -26 26 -21 51 11 53 64 70 101 33z"/>
<path d="M395 1571 c-48 -22 -78 -69 -77 -120 0 -21 17 -87 36 -147 19 -60 37
-122 40 -137 11 -61 29 -97 62 -127 19 -16 41 -30 49 -30 8 0 15 -8 16 -17 3
-72 43 -176 85 -226 38 -44 126 -109 169 -124 43 -15 110 -9 143 13 l24 16
-21 22 c-17 17 -23 18 -30 8 -11 -18 -71 -23 -116 -11 -48 14 -140 106 -170
171 -13 29 -27 75 -29 100 -5 44 -3 48 28 67 34 22 49 44 64 101 5 19 29 93
52 163 60 182 51 237 -50 282 -47 21 -70 15 -70 -20 0 -24 4 -26 33 -25 17 1
38 2 44 1 18 -1 43 -55 43 -90 0 -27 -76 -240 -90 -251 -3 -3 -14 -26 -24 -53
-18 -48 -39 -67 -74 -67 -18 0 -62 38 -62 55 0 5 -9 27 -20 49 -34 72 -91 238
-92 272 -1 35 24 83 45 85 6 1 22 0 35 -1 34 -2 54 17 41 41 -12 24 -33 24
-84 0z"/>
<path d="M971 1289 c-37 -8 -57 -29 -39 -41 7 -3 20 -2 29 3 56 29 135 -15
145 -81 4 -26 0 -44 -18 -70 -47 -70 -146 -61 -183 16 -9 19 -20 34 -25 34
-21 0 -8 -49 23 -84 27 -32 40 -39 81 -43 174 -20 218 219 50 266 -16 4 -44 4
-63 0z"/>
<path d="M834 1204 c-80 -27 -120 -81 -131 -173 -8 -67 17 -132 70 -182 23
-21 43 -37 44 -35 4 3 -11 39 -48 122 -49 108 3 213 114 227 26 3 42 0 50 -10
7 -8 20 -23 30 -34 48 -53 127 16 84 75 -17 23 -156 30 -213 10z"/>
<path d="M839 937 c-20 -44 -8 -68 114 -217 113 -139 240 -300 241 -306 0 -4
-22 -15 -49 -24 -141 -48 -232 -135 -198 -189 17 -27 42 -24 117 10 66 31 79
33 183 34 144 1 183 -3 191 -24 3 -9 14 -25 23 -36 10 -11 30 -35 44 -52 18
-23 35 -33 54 -33 24 0 90 40 129 77 7 7 56 47 108 89 67 54 94 82 94 97 0 29
-31 78 -78 124 -21 21 -62 75 -90 120 -89 144 -192 266 -241 284 -34 13 -75
-3 -198 -77 -58 -35 -116 -64 -128 -64 -14 0 -55 33 -121 101 -88 88 -105 101
-142 106 -37 5 -42 3 -53 -20z m944 -479 c31 -33 57 -72 57 -88 0 -14 -216
-195 -266 -223 -11 -6 -26 3 -54 35 -22 24 -40 50 -40 59 0 13 41 50 145 131
6 4 35 28 65 53 58 47 74 53 93 33z"/>
<path d="M1546 247 c-16 -12 -17 -14 -1 -27 14 -11 18 -11 32 2 8 9 12 21 9
27 -9 14 -18 14 -40 -2z"/>
</g>
</svg>
